<?xml version="1.0" encoding="UTF-8"?><svg id="Layer_1" xmlns="http://www.w3.org/2000/svg" viewBox="0 0 347.97503 380"><defs><style>.cls-1{fill:#006db3;}</style></defs><path class="cls-1" d="m0,124.04161c0-19.25272,15.6874-43.49688,34.94011-54.90589L144.03884,6.38613c16.40046-9.26982,45.63607-8.55677,64.88879,2.85225l109.09873,62.7496c16.40046,9.26983,29.94866,35.65318,29.94866,57.75815v126.21226c0,19.25272-15.6874,43.49687-34.94011,54.9059l-109.09873,62.74959c-16.40046,9.26982-45.63607,8.55677-64.88879-2.85225l-34.94012-19.96578v-80.57621l34.94011,19.96578c19.25272,11.40902,48.48833,12.12209,64.88879,2.85225l39.2185-22.81803c19.25272-11.40902,34.94011-35.65318,34.94011-54.9059v-45.63606c0-22.10497-13.54821-47.77526-29.94867-57.75815l-39.21849-22.81803c-19.25272-11.40902-48.48832-12.12208-64.88879-2.85225l-39.2185,22.81803c-19.25272,11.40902-34.94012,35.65318-34.94012,54.9059v166.14381l-39.2185-22.81804C14.26127,298.02912.71305,271.64576.71305,249.54079l-.71305-125.49918Z"/></svg>